<svg width="160" height="83" viewBox="0 0 160 83" fill="none" xmlns="http://www.w3.org/2000/svg">
<g opacity="0.5">
<path d="M72.3945 82.191L72.3945 52.5527" stroke="url(#paint0_linear_32143_4423)" stroke-width="0.379836"/>
<path d="M90.5098 82.0647V31.8789" stroke="url(#paint1_linear_32143_4423)" stroke-width="0.379836"/>
<path d="M108.499 81.9411L108.499 38.8535" stroke="url(#paint2_linear_32143_4423)" stroke-width="0.379836"/>
<path d="M126.36 82.1911L126.36 19.4277" stroke="url(#paint3_linear_32143_4423)" stroke-width="0.379836"/>
<path d="M144.603 81.941L144.603 0" stroke="url(#paint4_linear_32143_4423)" stroke-width="0.379836"/>
</g>
<g opacity="0.5">
<path d="M159.44 63.7363L114.215 63.7363" stroke="url(#paint5_linear_32143_4423)" stroke-width="0.379836"/>
<path d="M159.249 47.4961H82.6714" stroke="url(#paint6_linear_32143_4423)" stroke-width="0.379836"/>
<path d="M159.059 31.3691L93.3125 31.3691" stroke="url(#paint7_linear_32143_4423)" stroke-width="0.379836"/>
<path d="M159.439 15.3555L63.6694 15.3555" stroke="url(#paint8_linear_32143_4423)" stroke-width="0.379836"/>
</g>
<g opacity="0.5">
<path d="M0.189943 81.9266L0.189941 46.8047" stroke="url(#paint9_linear_32143_4423)" stroke-width="0.379836"/>
<path d="M18.3057 81.7777V22.3066" stroke="url(#paint10_linear_32143_4423)" stroke-width="0.379836"/>
<path d="M36.2939 81.6299L36.2939 30.5703" stroke="url(#paint11_linear_32143_4423)" stroke-width="0.379836"/>
<path d="M54.1558 81.9265L54.1558 7.55078" stroke="url(#paint12_linear_32143_4423)" stroke-width="0.379836"/>
<path d="M72.3981 81.6308L72.3945 1.13477" stroke="url(#paint13_linear_32143_4423)" stroke-width="0.379836"/>
</g>
<rect x="-2.78994" y="2.78994" width="32.3837" height="44.6922" rx="15.8097" transform="matrix(-1 0 0 1 121.755 1.13477)" stroke="url(#paint14_linear_32143_4423)" stroke-width="5.57989"/>
<rect width="44.6631" height="41.0461" rx="5.57989" transform="matrix(-1 0 0 1 134.034 26.3242)" fill="url(#paint15_linear_32143_4423)"/>
<rect width="44.6631" height="41.0461" rx="5.57989" transform="matrix(-1 0 0 1 127.335 26.3242)" fill="url(#paint16_linear_32143_4423)"/>
<ellipse cx="3.81497" cy="3.85984" rx="3.81497" ry="3.85984" transform="matrix(-1 0 0 1 108.911 39.1289)" fill="#0C0397"/>
<path d="M103.143 50.0501C103.143 51.0774 103.976 51.9101 105.003 51.9101C106.031 51.9101 106.863 51.0774 106.863 50.0501H105.003H103.143ZM105.003 43.6484H103.143V50.0501H105.003H106.863V43.6484H105.003Z" fill="#0C0397"/>
<defs>
<linearGradient id="paint0_linear_32143_4423" x1="72.8945" y1="52.5527" x2="72.8945" y2="82.191" gradientUnits="userSpaceOnUse">
<stop stop-color="#605CBF" stop-opacity="0"/>
<stop offset="1" stop-color="#7875BB"/>
</linearGradient>
<linearGradient id="paint1_linear_32143_4423" x1="91.0098" y1="31.8789" x2="91.0098" y2="82.0647" gradientUnits="userSpaceOnUse">
<stop stop-color="#605CBF" stop-opacity="0"/>
<stop offset="1" stop-color="#7875BB"/>
</linearGradient>
<linearGradient id="paint2_linear_32143_4423" x1="108.999" y1="38.8535" x2="108.999" y2="81.9411" gradientUnits="userSpaceOnUse">
<stop stop-color="#605CBF" stop-opacity="0"/>
<stop offset="1" stop-color="#7875BB"/>
</linearGradient>
<linearGradient id="paint3_linear_32143_4423" x1="126.86" y1="19.4277" x2="126.86" y2="82.1911" gradientUnits="userSpaceOnUse">
<stop stop-color="#605CBF" stop-opacity="0"/>
<stop offset="1" stop-color="#7875BB"/>
</linearGradient>
<linearGradient id="paint4_linear_32143_4423" x1="145.103" y1="-2.03658e-08" x2="145.103" y2="81.941" gradientUnits="userSpaceOnUse">
<stop stop-color="#605CBF" stop-opacity="0"/>
<stop offset="1" stop-color="#7875BB"/>
</linearGradient>
<linearGradient id="paint5_linear_32143_4423" x1="114.215" y1="63.2363" x2="159.44" y2="63.2363" gradientUnits="userSpaceOnUse">
<stop stop-color="#605CBF" stop-opacity="0"/>
<stop offset="1" stop-color="#7875BB"/>
</linearGradient>
<linearGradient id="paint6_linear_32143_4423" x1="82.6714" y1="46.9961" x2="159.249" y2="46.9961" gradientUnits="userSpaceOnUse">
<stop stop-color="#605CBF" stop-opacity="0"/>
<stop offset="1" stop-color="#7875BB"/>
</linearGradient>
<linearGradient id="paint7_linear_32143_4423" x1="93.3125" y1="30.8691" x2="159.059" y2="30.8691" gradientUnits="userSpaceOnUse">
<stop stop-color="#605CBF" stop-opacity="0"/>
<stop offset="1" stop-color="#7875BB"/>
</linearGradient>
<linearGradient id="paint8_linear_32143_4423" x1="63.6694" y1="14.8555" x2="159.439" y2="14.8555" gradientUnits="userSpaceOnUse">
<stop stop-color="#605CBF" stop-opacity="0"/>
<stop offset="1" stop-color="#7875BB"/>
</linearGradient>
<linearGradient id="paint9_linear_32143_4423" x1="0.689941" y1="46.8047" x2="0.689943" y2="81.9266" gradientUnits="userSpaceOnUse">
<stop stop-color="#605CBF" stop-opacity="0"/>
<stop offset="1" stop-color="#7875BB"/>
</linearGradient>
<linearGradient id="paint10_linear_32143_4423" x1="18.8057" y1="22.3066" x2="18.8057" y2="81.7777" gradientUnits="userSpaceOnUse">
<stop stop-color="#605CBF" stop-opacity="0"/>
<stop offset="1" stop-color="#7875BB"/>
</linearGradient>
<linearGradient id="paint11_linear_32143_4423" x1="36.7939" y1="30.5703" x2="36.7939" y2="81.6299" gradientUnits="userSpaceOnUse">
<stop stop-color="#605CBF" stop-opacity="0"/>
<stop offset="1" stop-color="#7875BB"/>
</linearGradient>
<linearGradient id="paint12_linear_32143_4423" x1="54.6558" y1="7.55078" x2="54.6558" y2="81.9265" gradientUnits="userSpaceOnUse">
<stop stop-color="#605CBF" stop-opacity="0"/>
<stop offset="1" stop-color="#7875BB"/>
</linearGradient>
<linearGradient id="paint13_linear_32143_4423" x1="72.8945" y1="1.13474" x2="72.8982" y2="81.6307" gradientUnits="userSpaceOnUse">
<stop stop-color="#605CBF" stop-opacity="0"/>
<stop offset="1" stop-color="#7875BB"/>
</linearGradient>
<linearGradient id="paint14_linear_32143_4423" x1="30.2175" y1="2.08875e-07" x2="-2.58115" y2="58.5314" gradientUnits="userSpaceOnUse">
<stop stop-color="#9690FF"/>
<stop offset="1" stop-color="#1C10DF"/>
</linearGradient>
<linearGradient id="paint15_linear_32143_4423" x1="22.374" y1="-32.4338" x2="-6.2037" y2="65.8602" gradientUnits="userSpaceOnUse">
<stop stop-color="white"/>
<stop offset="1" stop-color="#0F00FF"/>
</linearGradient>
<linearGradient id="paint16_linear_32143_4423" x1="59.0798" y1="59.9256" x2="8.81616" y2="-9.42261" gradientUnits="userSpaceOnUse">
<stop stop-color="#0F00FF"/>
<stop offset="1" stop-color="white"/>
</linearGradient>
</defs>
</svg>
